<?xml version="1.0" standalone="no"?>
<svg
  width="600"
  height="600"
  viewBox="0 0 600 600"
  xmlns="http://www.w3.org/2000/svg"
>
  <g transform="translate(300,300)">
    <path d="M121.5,-185C152.6,-169.2,169.5,-127.2,176.6,-87.7C183.7,-48.2,180.9,-11.3,175.4,25C169.9,61.4,161.7,97.2,141.8,126.3C121.9,155.5,90.4,178,58.1,178.9C25.7,179.7,-7.4,159,-36.8,142.5C-66.1,125.9,-91.6,113.7,-118.8,95.6C-146.1,77.4,-175,53.4,-187,22.1C-199,-9.3,-194.1,-47.8,-179.4,-82.7C-164.7,-117.6,-140.2,-148.8,-108.7,-164.4C-77.1,-180,-38.6,-180,3.3,-185.2C45.2,-190.4,90.5,-200.8,121.5,-185Z" fill="#505bda" />
  </g>
</svg>
  