<?xml version="1.0" standalone="no"?>
<svg
  width="600"
  height="600"
  viewBox="0 0 600 600"
  xmlns="http://www.w3.org/2000/svg"
>
  <g transform="translate(300,300)">
    <path d="M129,-197.9C171.2,-173.7,212,-144.6,238,-103.9C263.9,-63.3,275,-11.1,259.7,31.4C244.4,73.9,202.7,106.7,165.9,137.1C129.2,167.5,97.4,195.5,56.9,219C16.3,242.4,-33,261.3,-79.2,254.6C-125.4,247.9,-168.5,215.6,-200,175.4C-231.5,135.2,-251.3,87.1,-258.5,37.2C-265.7,-12.8,-260.2,-64.5,-240.3,-110.4C-220.4,-156.3,-186.2,-196.4,-143.7,-220.5C-101.3,-244.6,-50.6,-252.8,-3.6,-247.2C43.4,-241.6,86.9,-222.2,129,-197.9Z" fill="#505bda" />
  </g>
</svg>
  