<svg width="512" height="512" viewBox="0 0 512 512" fill="none" xmlns="http://www.w3.org/2000/svg">
<g clip-path="url(#clip0)">
<circle cx="256" cy="256" r="256" fill="white"/>
<path d="M212.2 296.6C221.8 272.6 230.8 245.2 239.2 214.4C247.6 183.2 251.8 160.2 251.8 145.4C251.8 130.6 250.4 119.8 247.6 113C245.2 106.2 242.2 102.8 238.6 102.8C225.4 102.8 216.6 139.6 212.2 213.2V296.6ZM371.8 360.8C369.8 360.8 367.8 362 365.8 364.4C364.2 366.4 362 369 359.2 372.2C356.4 375 350.4 379 341.2 384.2C332 389 322.6 391.4 313 391.4C295.8 391.4 281 384.6 268.6 371C256.6 357 250.6 346.6 250.6 339.8C250.6 332.6 249.6 328.6 247.6 327.8C245.6 327.8 243 330.8 239.8 336.8C231.4 352.4 227.2 370.8 227.2 392C227.2 412.8 232.8 429 244 440.6C255.6 452.6 267.8 458.6 280.6 458.6C302.6 458.6 324.6 447.2 346.6 424.4C368.6 401.2 379.6 383.8 379.6 372.2C379.6 364.6 377 360.8 371.8 360.8ZM212.8 325.4V329C212.8 333.8 213.2 336.2 214 336.2C215.2 336.2 216.6 335.4 218.2 333.8C227 308.6 238 286.8 251.2 268.4C264.4 249.6 278.8 240.2 294.4 240.2C308.4 240.2 315.4 249.6 315.4 268.4C315.4 275.2 312 284.6 305.2 296.6C298.8 308.2 292.6 314 286.6 314C284.2 314 281.8 312.2 279.4 308.6C277 304.6 272.8 302.6 266.8 302.6C255.2 302.6 245.4 307.8 237.4 318.2C229.4 328.2 223.6 341.2 220 357.2C214.4 384.4 211.6 410.4 211.6 435.2C211.6 447.2 206.2 453.2 195.4 453.2C193.4 453.2 192.4 451.4 192.4 447.8C194 421.8 194.8 389.2 194.8 350V264.8C194.8 190.8 197.4 140.4 202.6 113.6C208.6 84 216.2 64.8 225.4 56C231 50.8 237.6 48.2 245.2 48.2C266.8 48.2 277.6 64.4 277.6 96.8C277.6 129.2 270 169 254.8 216.2C240 263.4 226 299.8 212.8 325.4Z" fill="#55198C"/>
</g>
<defs>
<clipPath id="clip0">
<rect width="512" height="512" fill="white"/>
</clipPath>
</defs>
</svg>
