<svg width="148" height="51" viewBox="0 0 148 51" fill="none" xmlns="http://www.w3.org/2000/svg">
<g clip-path="url(#clip0)">
<path d="M2.664 30.512C3.816 27.632 4.896 24.344 5.904 20.648C6.912 16.904 7.416 14.144 7.416 12.368C7.416 10.592 7.248 9.296 6.912 8.48C6.624 7.664 6.264 7.256 5.832 7.256C4.248 7.256 3.192 11.672 2.664 20.504V30.512ZM21.816 38.216C21.576 38.216 21.336 38.36 21.096 38.648C20.904 38.888 20.64 39.2 20.304 39.584C19.968 39.92 19.248 40.4 18.144 41.024C17.04 41.6 15.912 41.888 14.76 41.888C12.696 41.888 10.92 41.072 9.432 39.44C7.992 37.76 7.272 36.512 7.272 35.696C7.272 34.832 7.152 34.352 6.912 34.256C6.672 34.256 6.36 34.616 5.976 35.336C4.968 37.208 4.464 39.416 4.464 41.96C4.464 44.456 5.136 46.4 6.48 47.792C7.872 49.232 9.336 49.952 10.872 49.952C13.512 49.952 16.152 48.584 18.792 45.848C21.432 43.064 22.752 40.976 22.752 39.584C22.752 38.672 22.44 38.216 21.816 38.216ZM2.736 33.968V34.4C2.736 34.976 2.784 35.264 2.88 35.264C3.024 35.264 3.192 35.168 3.384 34.976C4.44 31.952 5.76 29.336 7.344 27.128C8.928 24.872 10.656 23.744 12.528 23.744C14.208 23.744 15.048 24.872 15.048 27.128C15.048 27.944 14.64 29.072 13.824 30.512C13.056 31.904 12.312 32.6 11.592 32.6C11.304 32.6 11.016 32.384 10.728 31.952C10.44 31.472 9.936 31.232 9.216 31.232C7.824 31.232 6.648 31.856 5.688 33.104C4.728 34.304 4.032 35.864 3.6 37.784C2.928 41.048 2.592 44.168 2.592 47.144C2.592 48.584 1.944 49.304 0.648 49.304C0.408 49.304 0.288 49.088 0.288 48.656C0.48 45.536 0.576 41.624 0.576 36.92V26.696C0.576 17.816 0.888 11.768 1.512 8.552C2.232 5 3.144 2.696 4.248 1.64C4.92 1.016 5.712 0.704 6.624 0.704C9.216 0.704 10.512 2.648 10.512 6.536C10.512 10.424 9.6 15.2 7.776 20.864C6 26.528 4.32 30.896 2.736 33.968ZM54.3229 40.016C53.3629 41.744 51.5389 43.736 48.8509 45.992C46.2109 48.2 43.8829 49.304 41.8669 49.304C38.0749 49.304 36.0829 46.976 35.8909 42.32C35.8909 41.888 35.7949 41.672 35.6029 41.672C35.5069 41.672 35.0029 42.248 34.0909 43.4C33.2269 44.552 32.0029 45.728 30.4189 46.928C28.8829 48.08 27.2749 48.656 25.5949 48.656C23.9629 48.656 22.6429 48.152 21.6349 47.144C20.6749 46.136 20.1949 44.792 20.1949 43.112C20.1949 41.384 20.6989 39.128 21.7069 36.344C22.7149 33.56 23.6989 32.168 24.6589 32.168C25.1389 32.216 25.5229 32.456 25.8109 32.888C26.1469 33.32 26.3149 33.8 26.3149 34.328C26.3629 34.856 26.4829 35.504 26.6749 36.272C26.8669 37.04 27.3949 37.904 28.2589 38.864C29.1229 39.776 30.2509 40.232 31.6429 40.232C34.0429 40.232 36.0109 38.168 37.5469 34.04C37.5469 33.992 37.5949 33.872 37.6909 33.68C37.7869 33.44 37.8589 33.272 37.9069 33.176C37.9549 33.032 38.0269 32.864 38.1229 32.672C38.2189 32.432 38.3149 32.264 38.4109 32.168C39.0829 31.64 39.6349 31.64 40.0669 32.168C40.3549 32.552 40.5229 33.248 40.5709 34.256C40.5709 35.792 41.2189 37.304 42.5149 38.792C43.8589 40.232 45.5869 40.952 47.6989 40.952C49.8109 40.952 51.4909 40.328 52.7389 39.08C53.2189 38.504 53.6989 38.216 54.1789 38.216C54.5149 38.216 54.6829 38.408 54.6829 38.792C54.6829 39.176 54.5629 39.584 54.3229 40.016ZM59.094 7.112C57.75 7.112 56.718 8.672 55.998 11.792C55.326 14.912 54.99 18.08 54.99 21.296C54.99 24.512 55.326 27.68 55.998 30.8C59.31 25.856 60.966 19.232 60.966 10.928C60.966 9.728 60.774 8.792 60.39 8.12C60.054 7.448 59.622 7.112 59.094 7.112ZM66.078 42.104C66.846 42.104 67.95 41.816 69.39 41.24C70.83 40.664 71.814 40.376 72.342 40.376C72.87 40.376 73.134 40.616 73.134 41.096C73.134 42.2 71.622 43.832 68.598 45.992C65.622 48.104 63.222 49.16 61.398 49.16C59.574 49.16 58.086 48.872 56.934 48.296C55.782 47.72 54.846 46.88 54.126 45.776C53.454 44.624 52.902 43.496 52.47 42.392C52.038 41.288 51.75 39.944 51.606 38.36C51.318 35.912 51.174 33.056 51.174 29.792C51.174 26.528 51.606 22.616 52.47 18.056C53.334 13.496 54.534 9.632 56.07 6.464C57.654 3.296 59.31 1.664 61.038 1.568C61.518 1.616 61.902 1.712 62.19 1.856C62.526 1.952 62.838 2.36 63.126 3.08C63.462 3.752 63.63 4.736 63.63 6.032C63.63 17.84 61.302 26.912 56.646 33.248C58.566 39.152 61.71 42.104 66.078 42.104ZM76.0759 38.72C76.8919 38.432 77.7079 37.52 78.5239 35.984C79.3879 34.4 79.8199 33.104 79.8199 32.096C79.8199 31.088 79.4359 30.56 78.6679 30.512C77.5159 30.512 76.6999 31.04 76.2199 32.096C75.7399 33.104 75.4999 34.232 75.4999 35.48C75.4999 36.68 75.6919 37.76 76.0759 38.72ZM82.2679 43.4C83.6119 43.4 84.7159 43.112 85.5799 42.536C86.4919 41.912 87.3319 41.12 88.0999 40.16C88.9159 39.2 89.5399 38.72 89.9719 38.72C90.4519 38.72 90.6919 38.936 90.6919 39.368C90.6919 39.656 90.5959 39.992 90.4039 40.376C88.8199 42.92 86.8519 45.152 84.4999 47.072C82.1479 49.04 79.6519 50.024 77.0119 50.024C74.3719 50.024 72.4519 49.376 71.2519 48.08C70.0999 46.832 69.5239 45.152 69.5239 43.04C69.5239 39.392 70.8919 35.672 73.6279 31.88C76.3639 28.04 79.1959 26.12 82.1239 26.12C83.6599 26.12 84.4279 26.744 84.4279 27.992C84.4279 29.672 83.8999 31.424 82.8439 33.248C81.7879 35.024 79.8439 37.448 77.0119 40.52C78.3079 42.44 80.0599 43.4 82.2679 43.4ZM93.8751 37.712C93.8751 39.392 94.3791 40.832 95.3871 42.032C96.3951 43.184 97.7151 43.76 99.3471 43.76C101.027 43.76 102.395 43.568 103.451 43.184C104.555 42.752 105.395 42.344 105.971 41.96C106.547 41.528 106.979 41.312 107.267 41.312C107.699 41.312 107.915 41.528 107.915 41.96C107.915 43.448 106.523 45.2 103.739 47.216C100.955 49.28 97.7151 50.312 94.0191 50.312C91.6671 50.312 89.8911 49.712 88.6911 48.512C87.5391 47.36 86.9631 45.824 86.9631 43.904C86.9631 40.448 88.4271 37.016 91.3551 33.608C94.3311 30.152 97.7391 28.424 101.579 28.424C102.491 28.424 103.211 28.712 103.739 29.288C104.315 29.816 104.603 30.608 104.603 31.664C104.603 32.672 104.003 33.824 102.803 35.12C101.651 36.368 100.475 36.992 99.2751 36.992C98.9391 36.992 98.7711 36.824 98.7711 36.488C98.7711 36.152 98.9391 35.792 99.2751 35.408C99.6591 35.024 99.8511 34.568 99.8511 34.04C99.8511 33.464 99.6591 32.912 99.2751 32.384C98.9391 31.856 98.5551 31.592 98.1231 31.592C96.8271 31.592 95.7951 32.192 95.0271 33.392C94.2591 34.544 93.8751 35.984 93.8751 37.712ZM111.367 30.512C112.519 27.632 113.599 24.344 114.607 20.648C115.615 16.904 116.119 14.144 116.119 12.368C116.119 10.592 115.951 9.296 115.615 8.48C115.327 7.664 114.967 7.256 114.535 7.256C112.951 7.256 111.895 11.672 111.367 20.504V30.512ZM130.519 38.216C130.279 38.216 130.039 38.36 129.799 38.648C129.607 38.888 129.343 39.2 129.007 39.584C128.671 39.92 127.951 40.4 126.847 41.024C125.743 41.6 124.615 41.888 123.463 41.888C121.399 41.888 119.623 41.072 118.135 39.44C116.695 37.76 115.975 36.512 115.975 35.696C115.975 34.832 115.855 34.352 115.615 34.256C115.375 34.256 115.063 34.616 114.679 35.336C113.671 37.208 113.167 39.416 113.167 41.96C113.167 44.456 113.839 46.4 115.183 47.792C116.575 49.232 118.039 49.952 119.575 49.952C122.215 49.952 124.855 48.584 127.495 45.848C130.135 43.064 131.455 40.976 131.455 39.584C131.455 38.672 131.143 38.216 130.519 38.216ZM111.439 33.968V34.4C111.439 34.976 111.487 35.264 111.583 35.264C111.727 35.264 111.895 35.168 112.087 34.976C113.143 31.952 114.463 29.336 116.047 27.128C117.631 24.872 119.359 23.744 121.231 23.744C122.911 23.744 123.751 24.872 123.751 27.128C123.751 27.944 123.343 29.072 122.527 30.512C121.759 31.904 121.015 32.6 120.295 32.6C120.007 32.6 119.719 32.384 119.431 31.952C119.143 31.472 118.639 31.232 117.919 31.232C116.527 31.232 115.351 31.856 114.391 33.104C113.431 34.304 112.735 35.864 112.303 37.784C111.631 41.048 111.295 44.168 111.295 47.144C111.295 48.584 110.647 49.304 109.351 49.304C109.111 49.304 108.991 49.088 108.991 48.656C109.183 45.536 109.279 41.624 109.279 36.92V26.696C109.279 17.816 109.591 11.768 110.215 8.552C110.935 5 111.847 2.696 112.951 1.64C113.623 1.016 114.415 0.704 115.327 0.704C117.919 0.704 119.215 2.648 119.215 6.536C119.215 10.424 118.303 15.2 116.479 20.864C114.703 26.528 113.023 30.896 111.439 33.968ZM130.05 24.608C129.33 23.792 128.97 22.784 128.97 21.584C128.97 20.384 129.33 19.376 130.05 18.56C130.818 17.744 131.754 17.336 132.858 17.336C133.962 17.336 134.874 17.744 135.594 18.56C136.362 19.376 136.746 20.384 136.746 21.584C136.746 22.784 136.362 23.792 135.594 24.608C134.874 25.424 133.962 25.832 132.858 25.832C131.754 25.832 130.818 25.424 130.05 24.608ZM145.026 40.304C145.506 39.92 145.938 39.728 146.322 39.728C146.994 39.728 147.33 40.16 147.33 41.024C147.33 42.224 145.842 44.024 142.866 46.424C139.89 48.776 137.322 49.952 135.162 49.952C133.002 49.952 131.322 49.184 130.122 47.648C128.922 46.112 128.322 44.144 128.322 41.744C128.322 39.296 128.73 36.944 129.546 34.688C130.362 32.432 131.178 31.304 131.994 31.304C132.378 31.352 132.57 31.952 132.57 33.104C132.57 34.208 132.738 35.432 133.074 36.776C133.41 38.12 134.13 39.416 135.234 40.664C136.386 41.864 137.85 42.464 139.626 42.464C141.45 42.464 143.25 41.744 145.026 40.304Z" fill="#55198C"/>
<path d="M20.474 40.9574C21.0398 40.9574 21.6009 41.0036 22.1046 41.2748C22.415 41.4419 21.6504 41.446 21.5639 41.446C21.3414 41.446 21.0883 41.48 20.8707 41.4293C20.7786 41.4078 20.3263 41.3077 20.2966 41.2038C20.2731 41.1218 20.8349 41.2737 20.854 41.2831C21.0683 41.3886 21.2271 41.5322 21.3927 41.7007C21.5625 41.8736 21.7657 42.018 21.9125 42.2122C22.1222 42.4896 22.1937 42.7192 21.7726 42.7237C21.335 42.7285 20.9315 42.7346 20.5179 42.5755C20.451 42.5498 20.0652 42.4229 20.1525 42.2811C20.268 42.0935 20.8609 42.187 21.0294 42.206C21.1973 42.2249 21.4531 42.2789 21.5785 42.4043C21.6658 42.4916 21.307 42.4409 21.2757 42.4273C21.0206 42.3156 20.7933 42.1182 20.5951 41.9262C20.4857 41.8202 20.3387 41.6564 20.1755 41.636C19.9011 41.6017 20.1366 42.2641 20.1755 42.3855C20.2546 42.6327 20.3321 42.9028 20.4448 43.1371C20.5094 43.2716 20.5297 43.2828 20.4177 43.1956C20.2553 43.0693 20.3998 43.0132 20.5283 43.1183C20.6575 43.224 21.0481 43.5881 20.6243 43.5881C20.5737 43.5881 20.5061 43.5762 20.4573 43.5902C20.4127 43.6029 20.5033 43.6549 20.4657 43.6925C20.3311 43.8271 20.4364 43.5305 20.4364 43.5129" stroke="#55198C" stroke-linecap="round" stroke-linejoin="round"/>
<path d="M21.1129 41.7466C21.1129 41.413 21.2203 41.3472 21.4136 41.0994C21.6982 40.7345 21.9631 40.3409 22.232 39.9636C22.2819 39.8936 22.6913 39.3774 22.6913 39.4166C22.6913 39.8248 22.4381 40.2423 22.399 40.6568C22.3908 40.7437 22.2803 41.461 22.4282 41.0994C22.5513 40.7985 22.6161 40.4934 22.6161 40.1683C22.6161 39.8112 22.6161 39.4542 22.6161 39.0972C22.6161 38.9397 22.6672 38.665 22.447 38.665C22.2819 38.665 22.0802 38.6003 21.9021 38.5899C21.7168 38.579 21.6449 38.5766 21.5555 38.7778C21.4848 38.9369 21.4902 39.0671 21.376 39.2099C21.3033 39.3008 21.3641 39.1696 21.3968 39.1369C21.4545 39.0792 21.5212 39.0608 21.5806 38.9845C21.7111 38.8166 21.4743 38.8428 21.4511 38.8717C21.3632 38.9816 21.4253 39.2584 21.2799 39.3415C21.0886 39.4508 21.0353 39.676 20.9918 39.876C20.9261 40.1784 20.8126 40.4673 20.7454 40.7695C20.7301 40.8384 20.6555 41.1419 20.7079 40.9115C20.7706 40.6354 21.092 40.2837 21.3175 40.1307C21.5671 39.9613 21.8953 39.8196 22.186 39.7382C22.3569 39.6903 22.5364 39.6411 22.7101 39.6025C22.8035 39.5817 22.7665 39.3887 22.7665 39.3206C22.7665 39.1557 22.3059 39.021 22.1652 39.0053C22.0796 38.9958 21.8665 39.0794 22.0148 39.1536" stroke="#55198C" stroke-linecap="round" stroke-linejoin="round"/>
<path d="M21.332 39.1445C21.3485 39.1445 21.365 39.1442 21.3815 39.1445C21.4063 39.1451 21.4188 39.161 21.4392 39.1719C21.4443 39.1746 21.4574 39.1804 21.4607 39.1853C21.4676 39.1956 21.4423 39.1689 21.4336 39.1602" stroke="#55198C" stroke-linecap="round" stroke-linejoin="round"/>
<path d="M21.3086 39.6523C21.3131 39.6803 21.3125 39.7079 21.3125 39.7361C21.3125 39.7446 21.3125 39.7532 21.3125 39.7617C21.3125 39.7745 21.308 39.7517 21.3066 39.7478C21.2872 39.6939 21.2774 39.632 21.2441 39.584C21.2214 39.5511 21.2373 39.4966 21.2305 39.4592C21.2236 39.4216 21.2266 39.3823 21.2266 39.3442C21.2266 39.3357 21.2228 39.3163 21.2305 39.3125" stroke="#55198C" stroke-linecap="round" stroke-linejoin="round"/>
<path d="M21.3984 39.082C21.3931 39.0808 21.3568 39.0703 21.3633 39.0703C21.3663 39.0703 21.3709 39.0939 21.3711 39.0977C21.3716 39.1065 21.3754 39.1272 21.3663 39.1181C21.3633 39.1151 21.3394 39.1094 21.3438 39.1094" stroke="#55198C" stroke-linecap="round" stroke-linejoin="round"/>
<path d="M21.3516 39.1992C21.3312 39.1844 21.3176 39.1821 21.3086 39.1641" stroke="#55198C" stroke-linecap="round" stroke-linejoin="round"/>
<path d="M131.079 42.8483C131.001 42.7892 130.963 42.7005 130.886 42.6409C130.849 42.6124 130.803 42.5451 130.755 42.5398C130.609 42.5236 130.433 42.47 130.292 42.5406C130.125 42.6242 129.958 42.7349 129.826 42.8671C129.735 42.9577 129.691 43.0142 129.728 43.1516C129.753 43.2417 129.804 43.3605 129.782 43.4576C129.772 43.5014 129.663 43.5407 129.629 43.5578C129.55 43.5977 129.468 43.627 129.389 43.6649C129.334 43.6912 129.258 43.7076 129.2 43.7241C129.155 43.737 129.082 43.7583 129.035 43.7583C128.966 43.7583 128.858 43.8702 128.858 43.7429C128.858 43.6456 128.863 43.547 128.857 43.4498C128.848 43.3151 128.811 43.1854 128.811 43.0497C128.811 42.9651 128.8 42.8837 128.796 42.802C128.793 42.7512 128.765 42.7065 128.765 42.6632C128.765 42.2698 128.765 41.8765 128.765 41.4832C128.765 41.3494 128.775 41.2196 128.78 41.0864C128.785 40.9555 128.839 40.8502 128.897 40.735C128.963 40.6036 129.034 40.4751 129.116 40.3528C129.252 40.1527 129.338 39.9198 129.459 39.711C129.529 39.5904 129.614 39.4841 129.687 39.3656C129.769 39.232 129.848 39.0954 129.956 38.98C130.009 38.9238 130.06 38.8677 130.114 38.8138C130.162 38.766 130.218 38.7473 130.268 38.7066C130.309 38.6729 130.437 38.6696 130.493 38.6681C130.554 38.6664 130.638 38.6674 130.697 38.6492C130.803 38.6163 130.978 38.6204 131.06 38.7024C131.231 38.8738 131.171 39.1778 131.171 39.4008C131.171 39.5153 131.173 39.6299 131.171 39.7444C131.17 39.8329 131.148 39.9196 131.14 40.0075C131.13 40.1253 131.127 40.2594 131.094 40.3734C131.012 40.6573 130.977 40.9661 130.847 41.2355C130.712 41.5165 130.691 41.8739 130.437 42.0864C130.203 42.2825 129.978 42.4832 129.709 42.6323C129.583 42.7028 129.455 42.802 129.305 42.802C129.221 42.802 129.259 42.4583 129.259 42.3932C129.259 42.3419 129.277 42.2765 129.293 42.2278C129.353 42.0418 129.369 41.85 129.413 41.6605C129.458 41.4662 129.491 41.2627 129.567 41.0778C129.632 40.9198 129.73 40.7785 129.806 40.6271C129.919 40.4021 130.026 40.1726 130.138 39.9484C130.192 39.8391 130.246 39.7044 130.322 39.6099C130.358 39.5647 130.391 39.501 130.454 39.501C130.506 39.501 130.46 39.5446 130.481 39.5936C130.518 39.6834 130.49 39.8184 130.477 39.9107C130.427 40.275 130.346 40.6341 130.23 40.9818C130.186 41.114 130.156 41.2465 130.1 41.3743C130.073 41.4354 130.014 41.5379 130.014 41.6066C130.014 41.681 129.998 41.7332 129.965 41.7994C129.939 41.8517 129.904 41.8955 129.876 41.945C129.867 41.9597 129.86 41.8222 129.86 41.7994" stroke="#55198C" stroke-linecap="round" stroke-linejoin="round"/>
<path d="M128.855 43.9062C128.855 43.9316 128.85 43.9489 128.844 43.9705C128.841 43.9788 128.836 43.9792 128.836 43.9902C128.836 43.9993 128.836 44.0085 128.836 44.0176C128.836 44.0354 128.832 44.0493 128.832 44.0664C128.832 44.0755 128.832 44.0846 128.832 44.0938C128.832 44.1158 128.831 44.1013 128.824 44.0859" stroke="#55198C" stroke-linecap="round" stroke-linejoin="round"/>
<path d="M129.094 44.0703C129.093 44.0723 129.078 44.1242 129.076 44.1248C129.066 44.1276 129.051 44.125 129.041 44.125C129.021 44.125 129.001 44.125 128.98 44.125C128.968 44.125 128.954 44.1179 128.941 44.1172C128.914 44.1157 128.887 44.1055 128.857 44.1055C128.844 44.1055 128.83 44.1055 128.816 44.1055C128.806 44.1055 128.788 44.1016 128.809 44.1016" stroke="#55198C" stroke-linecap="round" stroke-linejoin="round"/>
<path d="M128.652 40.8828C128.64 40.8666 128.625 40.8629 128.633 40.842C128.646 40.8071 128.657 40.7704 128.672 40.7363C128.725 40.6179 128.848 40.5572 128.91 40.4471C128.938 40.3968 128.963 40.3448 128.989 40.2934C129.006 40.2605 129.022 40.2311 129.033 40.1958C129.042 40.1653 129.047 40.1337 129.047 40.1018C129.047 40.0752 129.045 40.068 129.026 40.0916C129.013 40.1077 129.009 40.1333 129.002 40.1524C128.981 40.2098 128.921 40.2297 128.895 40.2813C128.888 40.2968 128.866 40.3283 128.852 40.3368C128.837 40.3456 128.809 40.378 128.809 40.3399" stroke="#55198C" stroke-linecap="round" stroke-linejoin="round"/>
</g>
<defs>
<clipPath id="clip0">
<rect width="148" height="51" fill="white"/>
</clipPath>
</defs>
</svg>
